<svg width="284" height="486" viewBox="0 0 284 486" fill="none" xmlns="http://www.w3.org/2000/svg">
<path d="M99.6712 149.961L93.8738 141.965C93.8735 141.964 93.8732 141.964 93.8729 141.963C92.9318 140.669 91.8025 139.124 90.5958 137.473C87.7294 133.551 84.4256 129.031 82.1649 125.852C81.6535 125.15 81.1788 124.499 80.7381 123.899C80.914 125.286 81.1274 126.879 81.3724 128.694C86.6415 166.948 82.2332 201.357 67.6558 234.614C69.1929 233.04 70.8293 231.34 72.5014 229.582C79.8364 221.872 87.6842 213.226 90.8274 209.164C116.998 175.29 133.207 136.772 140.034 91.9483L140.036 91.9389C142.036 79.079 143.111 56.5343 142.909 37.4889C141.902 49.8384 140.73 61.9804 139.868 67.6394C136.837 88.7446 131.469 107.666 124.491 121.826L124.487 121.834L124.483 121.842C122.406 125.997 119.106 131.437 115.883 136.266C112.708 141.022 109.399 145.5 107.292 147.55L107.252 147.589L107.211 147.626L104.111 150.426L101.632 152.665L99.6712 149.961Z" fill="#FF2B00"/>
<path d="M99.6712 149.961L93.8738 141.965C93.8735 141.964 93.8732 141.964 93.8729 141.963C92.9318 140.669 91.8025 139.124 90.5958 137.473C87.7294 133.551 84.4256 129.031 82.1649 125.852C81.6535 125.15 81.1788 124.499 80.7381 123.899C80.914 125.286 81.1274 126.879 81.3724 128.694C86.6415 166.948 82.2332 201.357 67.6558 234.614C69.1929 233.04 70.8293 231.34 72.5014 229.582C79.8364 221.872 87.6842 213.226 90.8274 209.164C116.998 175.29 133.207 136.772 140.034 91.9483L140.036 91.9389C142.036 79.079 143.111 56.5343 142.909 37.4889C141.902 49.8384 140.73 61.9804 139.868 67.6394C136.837 88.7446 131.469 107.666 124.491 121.826L124.487 121.834L124.483 121.842C122.406 125.997 119.106 131.437 115.883 136.266C112.708 141.022 109.399 145.5 107.292 147.55L107.252 147.589L107.211 147.626L104.111 150.426L101.632 152.665L99.6712 149.961Z" stroke="#FF0000" stroke-width="6"/>
<path d="M99.6712 149.961L93.8738 141.965C93.8735 141.964 93.8732 141.964 93.8729 141.963C92.9318 140.669 91.8025 139.124 90.5958 137.473C87.7294 133.551 84.4256 129.031 82.1649 125.852C81.6535 125.15 81.1788 124.499 80.7381 123.899C80.914 125.286 81.1274 126.879 81.3724 128.694C86.6415 166.948 82.2332 201.357 67.6558 234.614C69.1929 233.04 70.8293 231.34 72.5014 229.582C79.8364 221.872 87.6842 213.226 90.8274 209.164C116.998 175.29 133.207 136.772 140.034 91.9483L140.036 91.9389C142.036 79.079 143.111 56.5343 142.909 37.4889C141.902 49.8384 140.73 61.9804 139.868 67.6394C136.837 88.7446 131.469 107.666 124.491 121.826L124.487 121.834L124.483 121.842C122.406 125.997 119.106 131.437 115.883 136.266C112.708 141.022 109.399 145.5 107.292 147.55L107.252 147.589L107.211 147.626L104.111 150.426L101.632 152.665L99.6712 149.961Z" stroke="#BD9429" stroke-opacity="0.49" stroke-width="6"/>
<path d="M170.681 71.6252C168.853 66.5993 165.737 56.8881 163.445 48.9788C165.741 96.364 164.873 125.984 159.922 157.55C162.348 149.792 164.642 142.718 166.421 137.463C167.368 134.665 168.177 132.36 168.787 130.737C169.088 129.932 169.357 129.252 169.579 128.751C169.685 128.511 169.811 128.24 169.948 127.998C170.012 127.886 170.129 127.688 170.295 127.479C170.378 127.376 170.528 127.199 170.746 127.016C170.905 126.883 171.285 126.586 171.862 126.419C172.77 126.153 173.579 126.362 174.104 126.625C174.595 126.87 174.911 127.191 175.066 127.364C175.379 127.714 175.575 128.08 175.672 128.272C175.894 128.708 176.092 129.239 176.265 129.751C176.626 130.819 177.046 132.314 177.495 134.088C178.4 137.656 179.486 142.585 180.543 148.017C181.603 153.27 182.66 158.06 183.53 161.609C184.513 159.672 185.626 157.33 186.759 154.782C188.365 151.167 189.904 147.811 191.11 145.309C191.711 144.064 192.243 143 192.668 142.214C192.877 141.826 193.083 141.463 193.273 141.164C193.366 141.018 193.485 140.841 193.621 140.668L193.628 140.659C193.707 140.558 194.032 140.142 194.556 139.828L194.763 139.704L194.986 139.615C197.114 138.763 198.693 140.188 199.251 140.922C199.86 141.724 200.189 142.699 200.346 143.623C200.677 145.073 201.657 149.586 202.538 153.895C206.366 172.343 215.235 194.728 225.674 212.159L225.68 212.169C228.587 217.067 232.005 222.388 235.348 227.32C226.666 206.435 220.718 183.231 217.921 159.451L217.919 159.44L217.918 159.429C216.086 142.838 217.299 103.965 220.34 85.7105C220.752 83.2054 221.102 80.8408 221.374 78.7798C219.271 80.9591 216.728 83.6919 214.036 86.7004C207.273 94.2587 200.05 102.286 197.887 104.554L194.202 108.537L191.892 111.035L189.703 108.43L187.603 105.93L187.6 105.927C186.618 104.754 185.35 102.673 184.013 100.267C182.633 97.7872 181.059 94.7387 179.456 91.4708C176.256 84.9444 172.889 77.4307 170.696 71.667L170.688 71.6462L170.681 71.6252Z" fill="#FF2B00"/>
<path d="M170.681 71.6252C168.853 66.5993 165.737 56.8881 163.445 48.9788C165.741 96.364 164.873 125.984 159.922 157.55C162.348 149.792 164.642 142.718 166.421 137.463C167.368 134.665 168.177 132.36 168.787 130.737C169.088 129.932 169.357 129.252 169.579 128.751C169.685 128.511 169.811 128.24 169.948 127.998C170.012 127.886 170.129 127.688 170.295 127.479C170.378 127.376 170.528 127.199 170.746 127.016C170.905 126.883 171.285 126.586 171.862 126.419C172.77 126.153 173.579 126.362 174.104 126.625C174.595 126.87 174.911 127.191 175.066 127.364C175.379 127.714 175.575 128.08 175.672 128.272C175.894 128.708 176.092 129.239 176.265 129.751C176.626 130.819 177.046 132.314 177.495 134.088C178.4 137.656 179.486 142.585 180.543 148.017C181.603 153.27 182.66 158.06 183.53 161.609C184.513 159.672 185.626 157.33 186.759 154.782C188.365 151.167 189.904 147.811 191.11 145.309C191.711 144.064 192.243 143 192.668 142.214C192.877 141.826 193.083 141.463 193.273 141.164C193.366 141.018 193.485 140.841 193.621 140.668L193.628 140.659C193.707 140.558 194.032 140.142 194.556 139.828L194.763 139.704L194.986 139.615C197.114 138.763 198.693 140.188 199.251 140.922C199.86 141.724 200.189 142.699 200.346 143.623C200.677 145.073 201.657 149.586 202.538 153.895C206.366 172.343 215.235 194.728 225.674 212.159L225.68 212.169C228.587 217.067 232.005 222.388 235.348 227.32C226.666 206.435 220.718 183.231 217.921 159.451L217.919 159.44L217.918 159.429C216.086 142.838 217.299 103.965 220.34 85.7105C220.752 83.2054 221.102 80.8408 221.374 78.7798C219.271 80.9591 216.728 83.6919 214.036 86.7004C207.273 94.2587 200.05 102.286 197.887 104.554L194.202 108.537L191.892 111.035L189.703 108.43L187.603 105.93L187.6 105.927C186.618 104.754 185.35 102.673 184.013 100.267C182.633 97.7872 181.059 94.7387 179.456 91.4708C176.256 84.9444 172.889 77.4307 170.696 71.667L170.688 71.6462L170.681 71.6252Z" stroke="#FF0000" stroke-width="6"/>
<path d="M170.681 71.6252C168.853 66.5993 165.737 56.8881 163.445 48.9788C165.741 96.364 164.873 125.984 159.922 157.55C162.348 149.792 164.642 142.718 166.421 137.463C167.368 134.665 168.177 132.36 168.787 130.737C169.088 129.932 169.357 129.252 169.579 128.751C169.685 128.511 169.811 128.24 169.948 127.998C170.012 127.886 170.129 127.688 170.295 127.479C170.378 127.376 170.528 127.199 170.746 127.016C170.905 126.883 171.285 126.586 171.862 126.419C172.77 126.153 173.579 126.362 174.104 126.625C174.595 126.87 174.911 127.191 175.066 127.364C175.379 127.714 175.575 128.08 175.672 128.272C175.894 128.708 176.092 129.239 176.265 129.751C176.626 130.819 177.046 132.314 177.495 134.088C178.4 137.656 179.486 142.585 180.543 148.017C181.603 153.27 182.66 158.06 183.53 161.609C184.513 159.672 185.626 157.33 186.759 154.782C188.365 151.167 189.904 147.811 191.11 145.309C191.711 144.064 192.243 143 192.668 142.214C192.877 141.826 193.083 141.463 193.273 141.164C193.366 141.018 193.485 140.841 193.621 140.668L193.628 140.659C193.707 140.558 194.032 140.142 194.556 139.828L194.763 139.704L194.986 139.615C197.114 138.763 198.693 140.188 199.251 140.922C199.86 141.724 200.189 142.699 200.346 143.623C200.677 145.073 201.657 149.586 202.538 153.895C206.366 172.343 215.235 194.728 225.674 212.159L225.68 212.169C228.587 217.067 232.005 222.388 235.348 227.32C226.666 206.435 220.718 183.231 217.921 159.451L217.919 159.44L217.918 159.429C216.086 142.838 217.299 103.965 220.34 85.7105C220.752 83.2054 221.102 80.8408 221.374 78.7798C219.271 80.9591 216.728 83.6919 214.036 86.7004C207.273 94.2587 200.05 102.286 197.887 104.554L194.202 108.537L191.892 111.035L189.703 108.43L187.603 105.93L187.6 105.927C186.618 104.754 185.35 102.673 184.013 100.267C182.633 97.7872 181.059 94.7387 179.456 91.4708C176.256 84.9444 172.889 77.4307 170.696 71.667L170.688 71.6462L170.681 71.6252Z" stroke="#BD9429" stroke-opacity="0.49" stroke-width="6"/>
<path d="M114.846 461.128C124.89 465.281 130.992 466.496 141.472 466.4L141.486 466.4H141.5C148.901 466.4 152.776 465.919 158.097 464.239L158.106 464.236L158.116 464.233C183.851 456.3 207.737 434.15 217.302 409.619C230.347 375.639 227.921 339.679 209.154 297.008L209.151 297.001L209.148 296.994C206.737 291.434 203.349 284.558 200.427 279.073C199.506 277.344 198.64 275.77 197.872 274.428C197.296 276.302 196.649 278.552 195.999 280.972C186.827 315.705 175.729 344.034 161.925 367.445C163.997 365.736 166.154 363.863 168.144 362.015C176.605 353.94 183.392 345.014 188.627 334.937C189.815 332.564 191.042 330.418 192.066 328.856C192.57 328.086 193.074 327.382 193.535 326.851C193.752 326.602 194.059 326.273 194.43 325.996C194.611 325.86 194.931 325.642 195.364 325.485C195.756 325.343 196.54 325.148 197.447 325.453C198.416 325.769 199.085 326.431 199.432 326.81C199.864 327.282 200.259 327.84 200.612 328.403C201.324 329.538 202.051 330.994 202.74 332.581C204.12 335.762 205.479 339.785 206.324 343.528C210.768 362.522 206.621 382.654 197.107 398.728C187.6 414.788 172.524 427.128 154.795 430.059C151.769 430.572 149.467 430.833 146.961 430.748C144.487 430.664 141.934 430.246 138.412 429.542L138.403 429.54C112.27 424.23 93.1828 407.915 82.8233 382.536C74.3747 361.884 75.2868 335.576 84.9014 311.119C86.3836 307.219 97.6413 282.703 109.782 256.73L109.783 256.729C138.937 194.412 141.302 188.15 143.928 169.091L143.929 169.085C144.284 166.537 144.532 163.671 144.683 160.772C141.951 172.156 137.705 184.935 133.436 194.43L133.433 194.438L133.429 194.445C128.634 204.954 122.622 215.225 103.149 246.583C76.5993 289.401 65.7219 312.647 60.2334 337.629C58.9055 343.989 58.5002 349.621 58.5999 365.481L58.6 365.491V365.5C58.6 374.738 58.6523 379.796 58.9886 383.652C59.316 387.404 59.9136 390.032 61.0956 394.415C69.3042 424.609 90.9734 451.253 114.846 461.128ZM114.846 461.128L113.7 463.9L114.846 461.128Z" fill="#FF2B00"/>
<path d="M114.846 461.128C124.89 465.281 130.992 466.496 141.472 466.4L141.486 466.4H141.5C148.901 466.4 152.776 465.919 158.097 464.239L158.106 464.236L158.116 464.233C183.851 456.3 207.737 434.15 217.302 409.619C230.347 375.639 227.921 339.679 209.154 297.008L209.151 297.001L209.148 296.994C206.737 291.434 203.349 284.558 200.427 279.073C199.506 277.344 198.64 275.77 197.872 274.428C197.296 276.302 196.649 278.552 195.999 280.972C186.827 315.705 175.729 344.034 161.925 367.445C163.997 365.736 166.154 363.863 168.144 362.015C176.605 353.94 183.392 345.014 188.627 334.937C189.815 332.564 191.042 330.418 192.066 328.856C192.57 328.086 193.074 327.382 193.535 326.851C193.752 326.602 194.059 326.273 194.43 325.996C194.611 325.86 194.931 325.642 195.364 325.485C195.756 325.343 196.54 325.148 197.447 325.453C198.416 325.769 199.085 326.431 199.432 326.81C199.864 327.282 200.259 327.84 200.612 328.403C201.324 329.538 202.051 330.994 202.74 332.581C204.12 335.762 205.479 339.785 206.324 343.528C210.768 362.522 206.621 382.654 197.107 398.728C187.6 414.788 172.524 427.128 154.795 430.059C151.769 430.572 149.467 430.833 146.961 430.748C144.487 430.664 141.934 430.246 138.412 429.542L138.403 429.54C112.27 424.23 93.1828 407.915 82.8233 382.536C74.3747 361.884 75.2868 335.576 84.9014 311.119C86.3836 307.219 97.6413 282.703 109.782 256.73L109.783 256.729C138.937 194.412 141.302 188.15 143.928 169.091L143.929 169.085C144.284 166.537 144.532 163.671 144.683 160.772C141.951 172.156 137.705 184.935 133.436 194.43L133.433 194.438L133.429 194.445C128.634 204.954 122.622 215.225 103.149 246.583C76.5993 289.401 65.7219 312.647 60.2334 337.629C58.9055 343.989 58.5002 349.621 58.5999 365.481L58.6 365.491V365.5C58.6 374.738 58.6523 379.796 58.9886 383.652C59.316 387.404 59.9136 390.032 61.0956 394.415C69.3042 424.609 90.9734 451.253 114.846 461.128ZM114.846 461.128L113.7 463.9L114.846 461.128Z" stroke="#FF0000" stroke-width="6"/>
<path d="M114.846 461.128C124.89 465.281 130.992 466.496 141.472 466.4L141.486 466.4H141.5C148.901 466.4 152.776 465.919 158.097 464.239L158.106 464.236L158.116 464.233C183.851 456.3 207.737 434.15 217.302 409.619C230.347 375.639 227.921 339.679 209.154 297.008L209.151 297.001L209.148 296.994C206.737 291.434 203.349 284.558 200.427 279.073C199.506 277.344 198.64 275.77 197.872 274.428C197.296 276.302 196.649 278.552 195.999 280.972C186.827 315.705 175.729 344.034 161.925 367.445C163.997 365.736 166.154 363.863 168.144 362.015C176.605 353.94 183.392 345.014 188.627 334.937C189.815 332.564 191.042 330.418 192.066 328.856C192.57 328.086 193.074 327.382 193.535 326.851C193.752 326.602 194.059 326.273 194.43 325.996C194.611 325.86 194.931 325.642 195.364 325.485C195.756 325.343 196.54 325.148 197.447 325.453C198.416 325.769 199.085 326.431 199.432 326.81C199.864 327.282 200.259 327.84 200.612 328.403C201.324 329.538 202.051 330.994 202.74 332.581C204.12 335.762 205.479 339.785 206.324 343.528C210.768 362.522 206.621 382.654 197.107 398.728C187.6 414.788 172.524 427.128 154.795 430.059C151.769 430.572 149.467 430.833 146.961 430.748C144.487 430.664 141.934 430.246 138.412 429.542L138.403 429.54C112.27 424.23 93.1828 407.915 82.8233 382.536C74.3747 361.884 75.2868 335.576 84.9014 311.119C86.3836 307.219 97.6413 282.703 109.782 256.73L109.783 256.729C138.937 194.412 141.302 188.15 143.928 169.091L143.929 169.085C144.284 166.537 144.532 163.671 144.683 160.772C141.951 172.156 137.705 184.935 133.436 194.43L133.433 194.438L133.429 194.445C128.634 204.954 122.622 215.225 103.149 246.583C76.5993 289.401 65.7219 312.647 60.2334 337.629C58.9055 343.989 58.5002 349.621 58.5999 365.481L58.6 365.491V365.5C58.6 374.738 58.6523 379.796 58.9886 383.652C59.316 387.404 59.9136 390.032 61.0956 394.415C69.3042 424.609 90.9734 451.253 114.846 461.128ZM114.846 461.128L113.7 463.9L114.846 461.128Z" stroke="#BD9429" stroke-opacity="0.49" stroke-width="6"/>
<path d="M250.992 288.889C261.581 302.871 268.943 319.375 273.225 338.335C275.212 347.013 275.4 351.442 275.3 372.506C275.3 380.242 275.143 387.343 274.865 393.281C276.403 387.307 277.794 381.085 278.64 376.01C279.854 368.678 280.475 358.655 280.488 348.971C280.5 339.263 279.9 330.163 278.764 324.615C273.383 299.484 262.559 279.186 243.937 259.778C228.993 244.245 214.176 233.442 192.858 222.783C186.662 219.685 176.947 215.47 168.758 212.184C167.587 211.714 166.451 211.265 165.365 210.842C167.067 212.573 168.951 214.482 170.932 216.489C186.274 231.932 195.699 243.589 207.707 261.852L207.707 261.853C226.182 289.975 236.034 314.932 240.268 344.844C240.718 340.173 241 335.094 241 330.5C241 315.524 239.352 304.908 234.62 288.64C233.669 285.388 232.791 282.352 232.15 280.076C231.83 278.94 231.565 277.98 231.378 277.271C231.286 276.92 231.208 276.611 231.15 276.365C231.122 276.244 231.094 276.114 231.07 275.991C231.063 275.951 231 275.644 231 275.3C231 274.906 231.072 274.11 231.663 273.354C232.33 272.5 233.247 272.21 233.925 272.17C234.517 272.134 234.987 272.274 235.218 272.354C235.482 272.446 235.702 272.557 235.859 272.644C236.42 272.955 237.005 273.431 237.491 273.853C238.547 274.772 239.943 276.157 241.452 277.748C244.485 280.947 248.209 285.23 250.988 288.884L250.992 288.889Z" fill="#FF2B00"/>
<path d="M250.992 288.889C261.581 302.871 268.943 319.375 273.225 338.335C275.212 347.013 275.4 351.442 275.3 372.506C275.3 380.242 275.143 387.343 274.865 393.281C276.403 387.307 277.794 381.085 278.64 376.01C279.854 368.678 280.475 358.655 280.488 348.971C280.5 339.263 279.9 330.163 278.764 324.615C273.383 299.484 262.559 279.186 243.937 259.778C228.993 244.245 214.176 233.442 192.858 222.783C186.662 219.685 176.947 215.47 168.758 212.184C167.587 211.714 166.451 211.265 165.365 210.842C167.067 212.573 168.951 214.482 170.932 216.489C186.274 231.932 195.699 243.589 207.707 261.852L207.707 261.853C226.182 289.975 236.034 314.932 240.268 344.844C240.718 340.173 241 335.094 241 330.5C241 315.524 239.352 304.908 234.62 288.64C233.669 285.388 232.791 282.352 232.15 280.076C231.83 278.94 231.565 277.98 231.378 277.271C231.286 276.92 231.208 276.611 231.15 276.365C231.122 276.244 231.094 276.114 231.07 275.991C231.063 275.951 231 275.644 231 275.3C231 274.906 231.072 274.11 231.663 273.354C232.33 272.5 233.247 272.21 233.925 272.17C234.517 272.134 234.987 272.274 235.218 272.354C235.482 272.446 235.702 272.557 235.859 272.644C236.42 272.955 237.005 273.431 237.491 273.853C238.547 274.772 239.943 276.157 241.452 277.748C244.485 280.947 248.209 285.23 250.988 288.884L250.992 288.889Z" stroke="#FF0000" stroke-width="6"/>
<path d="M250.992 288.889C261.581 302.871 268.943 319.375 273.225 338.335C275.212 347.013 275.4 351.442 275.3 372.506C275.3 380.242 275.143 387.343 274.865 393.281C276.403 387.307 277.794 381.085 278.64 376.01C279.854 368.678 280.475 358.655 280.488 348.971C280.5 339.263 279.9 330.163 278.764 324.615C273.383 299.484 262.559 279.186 243.937 259.778C228.993 244.245 214.176 233.442 192.858 222.783C186.662 219.685 176.947 215.47 168.758 212.184C167.587 211.714 166.451 211.265 165.365 210.842C167.067 212.573 168.951 214.482 170.932 216.489C186.274 231.932 195.699 243.589 207.707 261.852L207.707 261.853C226.182 289.975 236.034 314.932 240.268 344.844C240.718 340.173 241 335.094 241 330.5C241 315.524 239.352 304.908 234.62 288.64C233.669 285.388 232.791 282.352 232.15 280.076C231.83 278.94 231.565 277.98 231.378 277.271C231.286 276.92 231.208 276.611 231.15 276.365C231.122 276.244 231.094 276.114 231.07 275.991C231.063 275.951 231 275.644 231 275.3C231 274.906 231.072 274.11 231.663 273.354C232.33 272.5 233.247 272.21 233.925 272.17C234.517 272.134 234.987 272.274 235.218 272.354C235.482 272.446 235.702 272.557 235.859 272.644C236.42 272.955 237.005 273.431 237.491 273.853C238.547 274.772 239.943 276.157 241.452 277.748C244.485 280.947 248.209 285.23 250.988 288.884L250.992 288.889Z" stroke="#BD9429" stroke-opacity="0.49" stroke-width="6"/>
<path d="M19.2972 444.287C20.3163 446.379 21.6401 448.905 23.1437 451.654C19.262 441.396 16.0854 430.465 13.861 419.602L13.8584 419.589L13.8559 419.577C11.9048 409.616 11.4995 404.701 11.6 388.99C11.6 380.67 11.6729 375.654 12.0637 371.576C12.4622 367.419 13.1865 364.282 14.4013 359.727L14.4032 359.72L14.4051 359.713C15.8695 354.326 18.9993 346.501 22.0153 339.989C23.5294 336.72 25.0496 333.707 26.3597 331.438C27.01 330.311 27.6459 329.303 28.2332 328.521C28.5245 328.133 28.8504 327.739 29.2021 327.398C29.4854 327.124 30.0792 326.588 30.9265 326.33L30.9684 326.317L31.0106 326.306C31.5216 326.166 32.3221 326.059 33.204 326.384C34.1194 326.721 34.6966 327.366 35.0295 327.932C35.578 328.864 35.6926 329.977 35.7431 330.722C35.8588 332.429 35.741 335.19 35.4946 339.28L35.494 339.291L35.4933 339.301C34.3206 356.794 37.6656 380.361 43.5068 395.941C44.0426 397.351 44.7222 398.978 45.4816 400.695C43.6062 389.783 42.8561 378.233 43.3018 365.895C44.5237 330.67 54.9341 298.303 78.8738 254.95L78.8804 254.938C80.1311 252.697 81.3047 250.555 82.3496 248.613C44.5626 275.905 20.5135 305.845 9.34654 339.047C4.26988 354.475 2.70949 365.819 3.29806 383.892C4.18057 406.123 8.25817 421.617 19.2972 444.287ZM33.3757 331.709C33.3733 331.711 33.3707 331.714 33.3678 331.717C33.4081 331.683 33.4114 331.674 33.3757 331.709Z" fill="#FF2B00"/>
<path d="M19.2972 444.287C20.3163 446.379 21.6401 448.905 23.1437 451.654C19.262 441.396 16.0854 430.465 13.861 419.602L13.8584 419.589L13.8559 419.577C11.9048 409.616 11.4995 404.701 11.6 388.99C11.6 380.67 11.6729 375.654 12.0637 371.576C12.4622 367.419 13.1865 364.282 14.4013 359.727L14.4032 359.72L14.4051 359.713C15.8695 354.326 18.9993 346.501 22.0153 339.989C23.5294 336.72 25.0496 333.707 26.3597 331.438C27.01 330.311 27.6459 329.303 28.2332 328.521C28.5245 328.133 28.8504 327.739 29.2021 327.398C29.4854 327.124 30.0792 326.588 30.9265 326.33L30.9684 326.317L31.0106 326.306C31.5216 326.166 32.3221 326.059 33.204 326.384C34.1194 326.721 34.6966 327.366 35.0295 327.932C35.578 328.864 35.6926 329.977 35.7431 330.722C35.8588 332.429 35.741 335.19 35.4946 339.28L35.494 339.291L35.4933 339.301C34.3206 356.794 37.6656 380.361 43.5068 395.941C44.0426 397.351 44.7222 398.978 45.4816 400.695C43.6062 389.783 42.8561 378.233 43.3018 365.895C44.5237 330.67 54.9341 298.303 78.8738 254.95L78.8804 254.938C80.1311 252.697 81.3047 250.555 82.3496 248.613C44.5626 275.905 20.5135 305.845 9.34654 339.047C4.26988 354.475 2.70949 365.819 3.29806 383.892C4.18057 406.123 8.25817 421.617 19.2972 444.287ZM33.3757 331.709C33.3733 331.711 33.3707 331.714 33.3678 331.717C33.4081 331.683 33.4114 331.674 33.3757 331.709Z" stroke="#FF0000" stroke-width="6"/>
<path d="M19.2972 444.287C20.3163 446.379 21.6401 448.905 23.1437 451.654C19.262 441.396 16.0854 430.465 13.861 419.602L13.8584 419.589L13.8559 419.577C11.9048 409.616 11.4995 404.701 11.6 388.99C11.6 380.67 11.6729 375.654 12.0637 371.576C12.4622 367.419 13.1865 364.282 14.4013 359.727L14.4032 359.72L14.4051 359.713C15.8695 354.326 18.9993 346.501 22.0153 339.989C23.5294 336.72 25.0496 333.707 26.3597 331.438C27.01 330.311 27.6459 329.303 28.2332 328.521C28.5245 328.133 28.8504 327.739 29.2021 327.398C29.4854 327.124 30.0792 326.588 30.9265 326.33L30.9684 326.317L31.0106 326.306C31.5216 326.166 32.3221 326.059 33.204 326.384C34.1194 326.721 34.6966 327.366 35.0295 327.932C35.578 328.864 35.6926 329.977 35.7431 330.722C35.8588 332.429 35.741 335.19 35.4946 339.28L35.494 339.291L35.4933 339.301C34.3206 356.794 37.6656 380.361 43.5068 395.941C44.0426 397.351 44.7222 398.978 45.4816 400.695C43.6062 389.783 42.8561 378.233 43.3018 365.895C44.5237 330.67 54.9341 298.303 78.8738 254.95L78.8804 254.938C80.1311 252.697 81.3047 250.555 82.3496 248.613C44.5626 275.905 20.5135 305.845 9.34654 339.047C4.26988 354.475 2.70949 365.819 3.29806 383.892C4.18057 406.123 8.25817 421.617 19.2972 444.287ZM33.3757 331.709C33.3733 331.711 33.3707 331.714 33.3678 331.717C33.4081 331.683 33.4114 331.674 33.3757 331.709Z" stroke="#BD9429" stroke-opacity="0.49" stroke-width="6"/>
</svg>
