<?xml version="1.0" standalone="no"?>
<!DOCTYPE svg PUBLIC "-//W3C//DTD SVG 20010904//EN"
 "http://www.w3.org/TR/2001/REC-SVG-20010904/DTD/svg10.dtd">
<svg version="1.0" xmlns="http://www.w3.org/2000/svg"
 width="457.000000pt" height="578.000000pt" viewBox="0 0 457.000000 578.000000"
 preserveAspectRatio="xMidYMid meet">

<g transform="translate(0.000000,578.000000) scale(0.100000,-0.100000)"
fill="#fff" stroke="#f00">
<path d="M2270 5459 c-1 -105 -33 -513 -51 -631 -30 -209 -83 -395 -151 -533
-40 -80 -129 -213 -166 -249 l-31 -28 -58 80 c-32 44 -85 116 -117 161 -83
114 -84 113 -62 -50 54 -392 5 -742 -152 -1081 -22 -49 -37 -88 -33 -88 15 0
268 266 333 350 265 343 429 733 498 1186 28 180 38 544 21 746 -12 136 -30
218 -31 137z"/>
<path d="M2445 5185 c41 -701 26 -1032 -67 -1483 -18 -89 -19 -127 -4 -111 2
2 47 141 99 309 52 167 99 306 104 307 6 2 28 -85 49 -193 22 -109 44 -199 50
-201 6 -2 37 55 69 127 32 72 61 133 66 136 5 2 11 -5 13 -18 3 -13 13 -59 22
-103 39 -188 129 -415 235 -592 92 -155 234 -351 246 -339 2 2 -12 37 -33 77
-120 239 -201 519 -235 808 -18 163 -6 549 24 729 13 79 20 145 16 148 -4 2
-63 -57 -131 -133 -68 -76 -140 -156 -161 -178 l-37 -40 -21 25 c-31 37 -121
221 -164 334 -20 55 -56 168 -79 250 -67 235 -66 234 -61 141z"/>
<path d="M2307 4080 c-3 -8 -16 -64 -27 -125 -25 -124 -74 -278 -123 -387 -47
-103 -106 -204 -301 -518 -266 -429 -377 -665 -433 -920 -14 -67 -18 -126 -17
-285 0 -184 2 -208 26 -297 84 -309 306 -584 555 -687 104 -43 169 -56 278
-55 76 0 118 5 175 23 266 82 512 310 611 564 134 349 108 717 -82 1149 -49
113 -137 278 -148 278 -4 0 -22 -55 -40 -122 -94 -356 -208 -643 -350 -878
-27 -46 -49 -86 -46 -88 7 -7 97 61 167 126 87 83 157 175 211 279 23 46 47
82 52 80 17 -5 53 -88 69 -159 85 -363 -158 -774 -491 -829 -59 -10 -83 -9
-153 5 -251 51 -434 207 -534 452 -81 198 -73 453 21 692 14 37 126 281 248
542 291 622 317 689 344 885 18 129 9 333 -12 275z"/>
<path d="M2400 3456 c0 -2 62 -65 138 -142 152 -153 245 -268 364 -449 203
-309 300 -578 333 -919 4 -37 11 -64 15 -60 19 20 40 182 40 309 0 153 -17
262 -65 427 -19 65 -35 121 -35 125 0 14 92 -83 146 -154 103 -136 175 -297
217 -483 19 -83 21 -124 20 -335 0 -151 -6 -276 -15 -337 -7 -54 -11 -98 -7
-98 19 0 90 245 115 395 25 151 25 408 1 525 -55 257 -166 465 -356 663 -152
158 -303 268 -519 376 -126 63 -392 170 -392 157z"/>
<path d="M1664 3044 c-386 -277 -634 -583 -749 -925 -52 -158 -68 -275 -62
-459 9 -227 51 -386 163 -616 56 -115 200 -354 235 -389 18 -18 19 -18 19 -1
0 10 -15 44 -34 75 -96 159 -175 371 -218 581 -19 97 -23 144 -22 300 0 167 3
195 27 285 28 103 122 306 145 313 11 3 12 -16 7 -99 -12 -179 22 -419 82
-579 30 -79 102 -220 113 -220 4 0 0 33 -11 73 -36 140 -52 291 -46 457 12
346 114 665 352 1096 48 86 85 158 82 160 -2 2 -39 -21 -83 -52z"/>
</g>
</svg>
